<svg xmlns="http://www.w3.org/2000/svg" xmlns:xlink="http://www.w3.org/1999/xlink" viewBox="0 0 135.467 47.36">
  <defs>
    <linearGradient id="a">
      <stop offset="0" stop-color="#22313f"/>
      <stop offset="1" stop-color="#34495e"/>
    </linearGradient>
    <linearGradient gradientTransform="translate(0 -.066)" gradientUnits="userSpaceOnUse" y2="271.6" x2="67.733" y1="275.833" x1="67.733" id="b" xlink:href="#a"/>
  </defs>
  <path d="M17.1 296.934q-5.936 0-8.563-1.708-2.627-1.68-2.627-6.173v-7.276q0-3.152-1.234-4.387Q3.44 276.13 0 276.13v-5.622q2.443-.027 3.704-.552 1.26-.552 1.734-1.68.472-1.157.472-3.31v-7.645q0-2.23.683-3.7.683-1.496 2.154-2.34 1.47-.865 3.468-1.21 1.996-.364 4.886-.364v5.254q-2.81.025-3.7.97-.866.944-.866 3.597v7.067q-.025 2.653-1.312 4.176-1.287 1.496-4.255 2.6 5.57 1.155 5.57 6.566v7.145q0 2.656.867 3.6.893.948 3.704.97zm18.1-.104q1.497-7.278 2.47-13.53h6.41l-.08 1.288q-1.708 5.936-4.15 12.24zm27.53 0q1.496-7.278 2.468-13.53h6.41l-.08 1.288q-1.706 5.936-4.15 12.24zm27.53 0q1.496-7.278 2.468-13.53h6.41l-.08 1.288q-1.707 5.936-4.15 12.24zm28.08.104v-5.28q2.81-.026 3.677-.972.893-.92.893-3.6v-7.144q0-2.732 1.34-4.23 1.366-1.523 4.23-2.363-2.864-.893-4.204-2.47-1.34-1.602-1.366-4.28v-7.068q0-2.653-.893-3.598-.867-.95-3.677-.977V249.7q2.968 0 4.938.343 1.996.34 3.44 1.234 1.472.866 2.13 2.416.682 1.523.682 3.86v7.435q0 3.153 1.182 4.335 1.208 1.155 4.755 1.182v5.62q-3.468 0-4.702 1.236-1.235 1.21-1.235 4.416v7.513q0 4.36-2.627 5.99-2.627 1.652-8.563 1.652z" fill="url(#b)" transform="translate(0 -249.64)"/>
</svg>